HIERARCHY
ROOT Hips
{
  OFFSET 5.80788e-005 67.184 3.4734
  CHANNELS 6 Xposition Yposition Zposition Zrotation Xrotation Yrotation
  JOINT Chest
  {
    OFFSET 0 8.7983 -4.7612
    CHANNELS 6 Xposition Yposition Zposition Zrotation Xrotation Yrotation
    JOINT Chest2
    {
      OFFSET 0 8.0291 0.4195
      CHANNELS 6 Xposition Yposition Zposition Zrotation Xrotation Yrotation
      JOINT Chest3
      {
        OFFSET 0 9.9351 -2.2114
        CHANNELS 6 Xposition Yposition Zposition Zrotation Xrotation Yrotation
        JOINT Neck
        {
          OFFSET 0 22.3885 -0.4656
          CHANNELS 6 Xposition Yposition Zposition Zrotation Xrotation Yrotation
          JOINT Head
          {
            OFFSET -0.0001 12.643 3.4389
            CHANNELS 6 Xposition Yposition Zposition Zrotation Xrotation Yrotation
            End Site
            {
              OFFSET 0.0001 17.6655 0.5274
            }
          }
        }
        JOINT LeftCollar
        {
          OFFSET 2.2603 21.606 7.4023
          CHANNELS 6 Xposition Yposition Zposition Zrotation Xrotation Yrotation
          JOINT LeftShoulder
          {
            OFFSET 13.5163 -1.1332 -5.0146
            CHANNELS 6 Xposition Yposition Zposition Zrotation Xrotation Yrotation
            JOINT LeftElbow
            {
              OFFSET -0.0995 -28.05 -0.2431
              CHANNELS 6 Xposition Yposition Zposition Zrotation Xrotation Yrotation
              JOINT LeftWrist
              {
                OFFSET 0.0679 -23.3996 -0.1402
                CHANNELS 6 Xposition Yposition Zposition Zrotation Xrotation Yrotation
                JOINT LeftFinger1
                {
                  OFFSET 0.7932 -9.069 2.5189
                  CHANNELS 6 Xposition Yposition Zposition Zrotation Xrotation Yrotation
                  JOINT LeftFinger11
                  {
                    OFFSET -0.8272 -3.3923 0.5977
                    CHANNELS 6 Xposition Yposition Zposition Zrotation Xrotation Yrotation
                    JOINT LeftFinger12
                    {
                      OFFSET -0.5649 -2.3158 0.4082
                      CHANNELS 6 Xposition Yposition Zposition Zrotation Xrotation Yrotation
                      End Site
                      {
                        OFFSET -0.4919 -1.6479 0.2673
                      }
                    }
                  }
                }
                JOINT LeftFinger2
                {
                  OFFSET 0.9159 -9.2044 0.2193
                  CHANNELS 6 Xposition Yposition Zposition Zrotation Xrotation Yrotation
                  JOINT LeftFinger21
                  {
                    OFFSET 0.0117 -4.1944 -0.0248
                    CHANNELS 6 Xposition Yposition Zposition Zrotation Xrotation Yrotation
                    JOINT LeftFinger22
                    {
                      OFFSET 0.0071 -2.3249 -0.0142
                      CHANNELS 6 Xposition Yposition Zposition Zrotation Xrotation Yrotation
                      End Site
                      {
                        OFFSET -0.1475 -2.0882 0.0028
                      }
                    }
                  }
                }
                JOINT LeftFinger3
                {
                  OFFSET 0.6113 -8.7231 -2.0637
                  CHANNELS 6 Xposition Yposition Zposition Zrotation Xrotation Yrotation
                  JOINT LeftFinger31
                  {
                    OFFSET -0.1927 -3.8059 -0.2383
                    CHANNELS 6 Xposition Yposition Zposition Zrotation Xrotation Yrotation
                    JOINT LeftFinger32
                    {
                      OFFSET -0.1091 -2.1688 -0.1362
                      CHANNELS 6 Xposition Yposition Zposition Zrotation Xrotation Yrotation
                      End Site
                      {
                        OFFSET -0.2358 -1.9176 -0.0906
                      }
                    }
                  }
                }
                JOINT LeftFinger4
                {
                  OFFSET -0.6151 -8.0947 -3.5641
                  CHANNELS 6 Xposition Yposition Zposition Zrotation Xrotation Yrotation
                  JOINT LeftFinger41
                  {
                    OFFSET -0.4882 -2.341 -0.6462
                    CHANNELS 6 Xposition Yposition Zposition Zrotation Xrotation Yrotation
                    JOINT LeftFinger42
                    {
                      OFFSET -0.3575 -1.7167 -0.4742
                      CHANNELS 6 Xposition Yposition Zposition Zrotation Xrotation Yrotation
                      End Site
                      {
                        OFFSET -0.4187 -1.5237 -0.3496
                      }
                    }
                  }
                }
                JOINT LeftFinger0
                {
                  OFFSET -1.42 -1.8761 1.4223
                  CHANNELS 6 Xposition Yposition Zposition Zrotation Xrotation Yrotation
                  JOINT LeftFinger01
                  {
                    OFFSET -1.1471 -3.4929 2.6334
                    CHANNELS 6 Xposition Yposition Zposition Zrotation Xrotation Yrotation
                    JOINT LeftFinger02
                    {
                      OFFSET -0.823 -2.3 1.6571
                      CHANNELS 6 Xposition Yposition Zposition Zrotation Xrotation Yrotation
                      End Site
                      {
                        OFFSET -0.5822 -1.6914 1.1582
                      }
                    }
                  }
                }
              }
            }
          }
        }
        JOINT RightCollar
        {
          OFFSET -2.2603 21.606 7.4023
          CHANNELS 6 Xposition Yposition Zposition Zrotation Xrotation Yrotation
          JOINT RightShoulder
          {
            OFFSET -13.5187 -1.1334 -5.0155
            CHANNELS 6 Xposition Yposition Zposition Zrotation Xrotation Yrotation
            JOINT RightElbow
            {
              OFFSET 0.0994 -28.0499 -0.2431
              CHANNELS 6 Xposition Yposition Zposition Zrotation Xrotation Yrotation
              JOINT RightWrist
              {
                OFFSET -0.0679 -23.3996 -0.1402
                CHANNELS 6 Xposition Yposition Zposition Zrotation Xrotation Yrotation
                JOINT RightFinger1
                {
                  OFFSET -0.7932 -9.0691 2.5189
                  CHANNELS 6 Xposition Yposition Zposition Zrotation Xrotation Yrotation
                  JOINT RightFinger11
                  {
                    OFFSET 0.8272 -3.3923 0.5977
                    CHANNELS 6 Xposition Yposition Zposition Zrotation Xrotation Yrotation
                    JOINT RightFinger12
                    {
                      OFFSET 0.565 -2.3158 0.4082
                      CHANNELS 6 Xposition Yposition Zposition Zrotation Xrotation Yrotation
                      End Site
                      {
                        OFFSET 0.4919 -1.6479 0.2673
                      }
                    }
                  }
                }
                JOINT RightFinger2
                {
                  OFFSET -0.916 -9.2044 0.2193
                  CHANNELS 6 Xposition Yposition Zposition Zrotation Xrotation Yrotation
                  JOINT RightFinger21
                  {
                    OFFSET -0.0117 -4.1944 -0.0248
                    CHANNELS 6 Xposition Yposition Zposition Zrotation Xrotation Yrotation
                    JOINT RightFinger22
                    {
                      OFFSET -0.0071 -2.3249 -0.0142
                      CHANNELS 6 Xposition Yposition Zposition Zrotation Xrotation Yrotation
                      End Site
                      {
                        OFFSET 0.1475 -2.0882 0.0028
                      }
                    }
                  }
                }
                JOINT RightFinger3
                {
                  OFFSET -0.6113 -8.7231 -2.0637
                  CHANNELS 6 Xposition Yposition Zposition Zrotation Xrotation Yrotation
                  JOINT RightFinger31
                  {
                    OFFSET 0.1927 -3.8059 -0.2383
                    CHANNELS 6 Xposition Yposition Zposition Zrotation Xrotation Yrotation
                    JOINT RightFinger32
                    {
                      OFFSET 0.1091 -2.1688 -0.1362
                      CHANNELS 6 Xposition Yposition Zposition Zrotation Xrotation Yrotation
                      End Site
                      {
                        OFFSET 0.2358 -1.9176 -0.0906
                      }
                    }
                  }
                }
                JOINT RightFinger4
                {
                  OFFSET 0.6151 -8.0947 -3.564
                  CHANNELS 6 Xposition Yposition Zposition Zrotation Xrotation Yrotation
                  JOINT RightFinger41
                  {
                    OFFSET 0.4882 -2.341 -0.6462
                    CHANNELS 6 Xposition Yposition Zposition Zrotation Xrotation Yrotation
                    JOINT RightFinger42
                    {
                      OFFSET 0.3574 -1.7166 -0.4742
                      CHANNELS 6 Xposition Yposition Zposition Zrotation Xrotation Yrotation
                      End Site
                      {
                        OFFSET 0.4187 -1.5237 -0.3496
                      }
                    }
                  }
                }
                JOINT RightFinger0
                {
                  OFFSET 1.4199 -1.8761 1.4221
                  CHANNELS 6 Xposition Yposition Zposition Zrotation Xrotation Yrotation
                  JOINT RightFinger01
                  {
                    OFFSET 1.1472 -3.4929 2.6336
                    CHANNELS 6 Xposition Yposition Zposition Zrotation Xrotation Yrotation
                    JOINT RightFinger02
                    {
                      OFFSET 0.8229 -2.3 1.6571
                      CHANNELS 6 Xposition Yposition Zposition Zrotation Xrotation Yrotation
                      End Site
                      {
                        OFFSET 0.5822 -1.6914 1.1582
                      }
                    }
                  }
                }
              }
            }
          }
        }
      }
    }
  }
  JOINT RightHip
  {
    OFFSET -9.412 3.9771 -0.7758
    CHANNELS 6 Xposition Yposition Zposition Zrotation Xrotation Yrotation
    JOINT RightKnee
    {
      OFFSET -0.7531 -40.938 0
      CHANNELS 6 Xposition Yposition Zposition Zrotation Xrotation Yrotation
      JOINT RightAnkle
      {
        OFFSET 0 -40.1986 0
        CHANNELS 6 Xposition Yposition Zposition Zrotation Xrotation Yrotation
        JOINT RightToe
        {
          OFFSET 0 -4.4182 9.239
          CHANNELS 6 Xposition Yposition Zposition Zrotation Xrotation Yrotation
          End Site
          {
            OFFSET 0 0 6.1981
          }
        }
      }
    }
  }
  JOINT LeftHip
  {
    OFFSET 9.4119 3.9773 -0.7758
    CHANNELS 6 Xposition Yposition Zposition Zrotation Xrotation Yrotation
    JOINT LeftKnee
    {
      OFFSET 0.7532 -40.9383 0
      CHANNELS 6 Xposition Yposition Zposition Zrotation Xrotation Yrotation
      JOINT LeftAnkle
      {
        OFFSET 0 -40.1986 0
        CHANNELS 6 Xposition Yposition Zposition Zrotation Xrotation Yrotation
        JOINT LeftToe
        {
          OFFSET 0 -4.4182 9.239
          CHANNELS 6 Xposition Yposition Zposition Zrotation Xrotation Yrotation
          End Site
          {
            OFFSET 0 0 6.1981
          }
        }
      }
    }
  }
}
MOTION
Frames:	4
Frame Time:	0.0333333
5.80788e-005 67.184 3.4734 0 0 -0 0 8.7983 -4.7612 0 0 -0 0 8.0291 0.4195 0 0 -0 0 9.9351 -2.2114 0 0 -0 0 22.3885 -0.4656 0 0 -0 -0.0001 12.643 3.4389 0 0 -0 2.2603 21.606 7.4023 0 0 -12.5014 13.5163 -1.1332 -5.0146 88.1196 14.2451 10.6914 -0.0995 -28.05 -0.2431 -0.00160068 -0.00239207 0.000740045 0.0679 -23.3996 -0.1402 -8.4365e-005 7.00714e-005 -9.52055e-007 0.7932 -9.069 2.5189 9.93923e-017 -1.98785e-016 -1.59028e-015 -0.8272 -3.3923 0.5977 9.93923e-017 -5.96354e-016 -1.59028e-015 -0.5649 -2.3158 0.4082 -9.93923e-017 -5.96354e-016 -1.59028e-015 0.9159 -9.2044 0.2193 9.93923e-017 -1.98785e-016 -1.59028e-015 0.0117 -4.1944 -0.0248 -0.0128176 0.00232552 8.52707e-005 0.0071 -2.3249 -0.0142 9.93923e-017 5.96354e-016 -0 0.6113 -8.7231 -2.0637 9.93923e-017 -1.98785e-016 -1.59028e-015 -0.1927 -3.8059 -0.2383 -0.0160551 0.00299681 0.000857156 -0.1091 -2.1688 -0.1362 -2.48481e-016 0 3.18055e-015 -0.6151 -8.0947 -3.5641 9.93923e-017 -1.98785e-016 -1.59028e-015 -0.4882 -2.341 -0.6462 -0.0125865 0.0031206 0.00282719 -0.3575 -1.7167 -0.4742 0 1.98785e-016 -0 -1.42 -1.8761 1.4223 9.93923e-017 -1.98785e-016 -1.59028e-015 -1.1471 -3.4929 2.6334 9.93923e-017 -5.96354e-016 -1.59028e-015 -0.823 -2.3 1.6571 -9.93923e-017 -5.96354e-016 -1.59028e-015 -2.2603 21.606 7.4023 -0.865644 0.16582 7.03859 -13.5187 -1.1334 -5.0155 -88.0329 10.2057 -10.5567 0.0994 -28.0499 -0.2431 0.0015593 -0.00248883 -0.000788628 -0.0679 -23.3996 -0.1402 7.87605e-005 4.10553e-005 1.24965e-005 -0.7932 -9.0691 2.5189 -3.97569e-016 -7.95139e-016 3.18055e-015 0.8272 -3.3923 0.5977 -1.98785e-016 -3.97569e-016 3.18055e-015 0.565 -2.3158 0.4082 -1.98785e-016 0 3.18055e-015 -0.916 -9.2044 0.2193 -3.97569e-016 -7.95139e-016 3.18055e-015 -0.0117 -4.1944 -0.0248 0.0129473 0.00231697 -8.70038e-005 -0.0071 -2.3249 -0.0142 9.93923e-017 -7.95139e-016 1.59028e-015 -0.6113 -8.7231 -2.0637 -3.97569e-016 -7.95139e-016 3.18055e-015 0.1927 -3.8059 -0.2383 0.0163314 0.00303369 -0.000872333 0.1091 -2.1688 -0.1362 3.97569e-016 7.95139e-016 -3.18055e-015 0.6151 -8.0947 -3.564 -3.97569e-016 -7.95139e-016 3.18055e-015 0.4882 -2.341 -0.6462 0.0145763 0.00367772 -0.00326275 0.3574 -1.7166 -0.4742 9.93923e-017 -3.97569e-016 -0 1.4199 -1.8761 1.4221 -3.97569e-016 -7.95139e-016 3.18055e-015 1.1472 -3.4929 2.6336 -1.98785e-016 -3.97569e-016 3.18055e-015 0.8229 -2.3 1.6571 -1.98785e-016 0 3.18055e-015 -9.412 3.9771 -0.7758 3.42485 1.36937 -0.0640303 -0.7531 -40.938 0 0.000136572 0.69354 0.00145564 1.77636e-015 -40.1986 -1.11022e-016 -3.42573 -2.06297 -0.0607933 8.88178e-016 -4.4182 9.239 -3.19502e-024 0 -1.48106e-024 9.4119 3.9773 -0.7758 -3.42498 1.36123 0.0639712 0.7532 -40.9383 2.22045e-016 -6.769e-005 0.712612 -0.0012277 8.88179e-016 -40.1986 0 3.42582 -2.07388 0.0612819 -8.88178e-016 -4.4182 9.239 2.55305e-023 0 -2.31416e-026 
-7.38269 14.249 41.0877 -180 68.9258 180 0 8.7983 -4.7612 -0.115865 -5.9257 -0.45762 0 8.0291 0.4195 -0.281889 -11.8503 -0.934929 0 9.9351 -2.2114 -0.28189 -11.8503 -0.934931 0 22.3885 -0.4656 -1.4356e-006 -33.2075 -2.11398e-006 -0.0001 12.643 3.4389 -4.40823e-007 -16.1336 -8.02465e-008 2.2603 21.606 7.4023 -6.26031 -8.70151 -39.4305 13.5163 -1.1332 -5.0146 95.5353 -7.19532 9.57907 -0.0995 -28.05 -0.2431 48.3307 -46.1316 28.7659 0.0679 -23.3996 -0.1402 10.0434 -0.61092 8.90069 0.7932 -9.069 2.5189 5.70025e-007 -5.4953e-006 -9.81687e-006 -0.8272 -3.3923 0.5977 3.18055e-015 1.21756e-015 1.4474e-015 -0.5649 -2.3158 0.4082 3.18055e-015 3.70236e-015 -2.29224e-015 0.9159 -9.2044 0.2193 5.70025e-007 -5.4953e-006 -9.81687e-006 0.0117 -4.1944 -0.0248 -0.0128642 0.00233627 9.15595e-005 0.0071 -2.3249 -0.0142 3.18055e-015 9.93923e-017 -2.4289e-015 0.6113 -8.7231 -2.0637 5.70025e-007 -5.4953e-006 -9.81687e-006 -0.1927 -3.8059 -0.2383 -0.0159601 0.0029837 0.000860419 -0.1091 -2.1688 -0.1362 3.18055e-015 -1.2921e-015 1.2424e-016 -0.6151 -8.0947 -3.5641 5.70025e-007 -5.4953e-006 -9.81687e-006 -0.4882 -2.341 -0.6462 -0.0126152 0.00313235 0.00284791 -0.3575 -1.7167 -0.4742 3.18055e-015 -2.23633e-016 2.98177e-015 -1.42 -1.8761 1.4223 5.70025e-007 -5.4953e-006 -9.81687e-006 -1.1471 -3.4929 2.6334 3.18055e-015 1.21756e-015 1.4474e-015 -0.823 -2.3 1.6571 3.18055e-015 3.70236e-015 -2.29224e-015 -2.2603 21.606 7.4023 -3.56553 11.1337 -3.52353 -13.5187 -1.1334 -5.0155 26.014 36.7287 13.6063 0.0994 -28.0499 -0.2431 -1.73413 -23.7727 8.61827 -0.0679 -23.3996 -0.1402 -23.7181 -27.7797 -64.0187 -0.7932 -9.0691 2.5189 9.54166e-015 4.77083e-015 3.18055e-015 0.8272 -3.3923 0.5977 9.54166e-015 3.18055e-015 3.18055e-015 0.565 -2.3158 0.4082 6.36111e-015 3.97569e-015 3.57812e-015 -0.916 -9.2044 0.2193 9.54166e-015 4.77083e-015 3.18055e-015 -0.0117 -4.1944 -0.0248 0.0129081 0.0023181 -9.35456e-005 -0.0071 -2.3249 -0.0142 3.14491e-031 -2.38542e-015 7.55382e-015 -0.6113 -8.7231 -2.0637 9.54166e-015 4.77083e-015 3.18055e-015 0.1927 -3.8059 -0.2383 0.0163378 0.00304384 -0.000886847 0.1091 -2.1688 -0.1362 -3.18055e-015 -1.43125e-014 -1.03368e-014 0.6151 -8.0947 -3.564 9.54166e-015 4.77083e-015 3.18055e-015 0.4882 -2.341 -0.6462 0.0145616 0.00368063 -0.00326172 0.3574 -1.7166 -0.4742 -3.18055e-015 -2.38542e-015 -6.75868e-015 1.4199 -1.8761 1.4221 9.54166e-015 4.77083e-015 3.18055e-015 1.1472 -3.4929 2.6336 9.54166e-015 3.18055e-015 3.18055e-015 0.8229 -2.3 1.6571 6.36111e-015 3.97569e-015 3.57812e-015 -9.412 3.9771 -0.7758 -113.099 -35.754 -113.275 -0.7531 -40.938 0 -98.8162 80.396 107.704 7.10543e-015 -40.1986 0 -32.8605 32.6904 61.859 -7.10543e-015 -4.4182 9.239 1.17178e-006 -1.49263e-009 2.36378e-007 9.4119 3.9773 -0.7758 113.131 -35.7803 113.259 0.7532 -40.9383 -7.10543e-015 98.8552 80.4382 -107.755 7.10543e-015 -40.1986 0 32.8334 32.7244 -61.8666 -7.10543e-015 -4.4182 9.239 -2.35377e-007 -3.80269e-009 -3.55022e-007 
-6.94851 16.235 38.3755 180 77.2185 -180 0 8.7983 -4.7612 -0.106612 -4.89137 -0.428668 -8.88179e-016 8.0291 0.4195 -0.251491 -9.78177 -0.871302 0 9.9351 -2.2114 -0.251492 -9.78179 -0.871304 0 22.3885 -0.4656 -9.36941e-007 -32.2237 -1.86027e-006 -0.0001 12.643 3.4389 2.81242e-007 -15.8902 1.09555e-007 2.2603 21.606 7.4023 -4.70634 -9.396 -38.0567 13.5163 -1.1332 -5.0146 95.1437 -5.92783 9.6492 -0.0995 -28.05 -0.2431 44.344 -43.0183 26.3483 0.0679 -23.3996 -0.1402 10.4025 -0.670743 9.01416 0.7932 -9.069 2.5189 -3.44836e-032 7.95139e-016 2.48481e-015 -0.8272 -3.3923 0.5977 -0 0 2.08724e-015 -0.5649 -2.3158 0.4082 -0 0 1.88845e-015 0.9159 -9.2044 0.2193 -3.44836e-032 7.95139e-016 2.48481e-015 0.0117 -4.1944 -0.0248 -0.0127957 0.00232453 9.04608e-005 0.0071 -2.3249 -0.0142 9.54166e-015 1.59028e-015 -7.95139e-016 0.6113 -8.7231 -2.0637 -3.44836e-032 7.95139e-016 2.48481e-015 -0.1927 -3.8059 -0.2383 -0.0159587 0.00297268 0.000858098 -0.1091 -2.1688 -0.1362 -6.36111e-015 -7.95139e-016 -1.98785e-015 -0.6151 -8.0947 -3.5641 -3.44836e-032 7.95139e-016 2.48481e-015 -0.4882 -2.341 -0.6462 -0.0125574 0.00311354 0.00282228 -0.3575 -1.7167 -0.4742 3.18055e-015 3.97569e-016 9.93923e-017 -1.42 -1.8761 1.4223 -3.44836e-032 7.95139e-016 2.48481e-015 -1.1471 -3.4929 2.6334 -0 0 2.08724e-015 -0.823 -2.3 1.6571 -0 0 1.88845e-015 -2.2603 21.606 7.4023 -1.61298 8.51152 -2.6018 -13.5187 -1.1334 -5.0155 18.2301 36.688 8.97876 0.0994 -28.0499 -0.2431 -0.474915 -25.8672 5.68469 -0.0679 -23.3996 -0.1402 -19.209 -24.8129 -59.756 -0.7932 -9.0691 2.5189 -3.18055e-015 -1.59028e-015 -3.97569e-015 0.8272 -3.3923 0.5977 6.36111e-015 1.59028e-015 7.95139e-016 0.565 -2.3158 0.4082 3.18055e-015 1.59028e-015 -3.18055e-015 -0.916 -9.2044 0.2193 -3.18055e-015 -1.59028e-015 -3.97569e-015 -0.0117 -4.1944 -0.0248 0.0129443 0.00232144 -0.000100961 -0.0071 -2.3249 -0.0142 6.36111e-015 6.36111e-015 -0 -0.6113 -8.7231 -2.0637 -3.18055e-015 -1.59028e-015 -3.97569e-015 0.1927 -3.8059 -0.2383 0.0163069 0.00304099 -0.000879964 0.1091 -2.1688 -0.1362 3.18055e-015 0 1.98785e-015 0.6151 -8.0947 -3.564 -3.18055e-015 -1.59028e-015 -3.97569e-015 0.4882 -2.341 -0.6462 0.0146051 0.00367997 -0.00327042 0.3574 -1.7166 -0.4742 -1.65521e-031 1.59028e-015 5.96354e-015 1.4199 -1.8761 1.4221 -3.18055e-015 -1.59028e-015 -3.97569e-015 1.1472 -3.4929 2.6336 6.36111e-015 1.59028e-015 7.95139e-016 0.8229 -2.3 1.6571 3.18055e-015 1.59028e-015 -3.18055e-015 -9.412 3.9771 -0.7758 -104.965 -39.3643 -109.19 -0.7531 -40.938 7.10543e-015 -67.448 81.3088 76.18 0 -40.1986 0 -31.3058 31.7873 59.3486 0 -4.4182 9.239 2.95367e-007 -1.14206e-008 3.0745e-007 9.4119 3.9773 -0.7758 104.991 -39.4464 109.125 0.7532 -40.9383 -7.10543e-015 67.3436 81.3469 -76.0864 -3.55271e-015 -40.1986 0 31.1981 31.8382 -59.2934 7.10543e-015 -4.4182 9.239 -7.54233e-007 -6.59275e-009 4.36884e-007 
-6.94861 15.6948 38.4289 -180 78.8833 180 0 8.7983 -4.7612 -0.111288 -4.23154 -0.426295 0 8.0291 0.4195 -0.255293 -8.46213 -0.864408 8.88179e-016 9.9351 -2.2114 -0.255293 -8.46214 -0.86441 0 22.3885 -0.4656 -7.20384e-007 -33.14 -1.46151e-006 -0.0001 12.643 3.4389 1.50525e-008 -16.5568 1.23305e-007 2.2603 21.606 7.4023 -3.80337 -10.4362 -38.2681 13.5163 -1.1332 -5.0146 95.1436 -5.92786 9.64917 -0.0995 -28.05 -0.2431 43.5181 -42.5067 25.7964 0.0679 -23.3996 -0.1402 11.3021 -0.74952 9.62569 0.7932 -9.069 2.5189 -0 -3.97569e-016 -0 -0.8272 -3.3923 0.5977 -1.79315e-032 -7.95139e-016 -1.2921e-015 -0.5649 -2.3158 0.4082 3.18055e-015 1.19271e-015 -1.09332e-015 0.9159 -9.2044 0.2193 -0 -3.97569e-016 -0 0.0117 -4.1944 -0.0248 -0.0128242 0.00232268 8.58572e-005 0.0071 -2.3249 -0.0142 -1.81462e-006 2.23218e-006 -6.72645e-006 0.6113 -8.7231 -2.0637 -0 -3.97569e-016 -0 -0.1927 -3.8059 -0.2383 -0.0161301 0.00299778 0.000856924 -0.1091 -2.1688 -0.1362 -6.36111e-015 -3.97569e-016 -1.78906e-015 -0.6151 -8.0947 -3.5641 -0 -3.97569e-016 -0 -0.4882 -2.341 -0.6462 -0.0125059 0.00309627 0.00280762 -0.3575 -1.7167 -0.4742 6.36111e-015 -1.59028e-015 4.17448e-015 -1.42 -1.8761 1.4223 -0 -3.97569e-016 -0 -1.1471 -3.4929 2.6334 -1.79315e-032 -7.95139e-016 -1.2921e-015 -0.823 -2.3 1.6571 3.18055e-015 1.19271e-015 -1.09332e-015 -2.2603 21.606 7.4023 0.199031 6.62474 -2.27423 -13.5187 -1.1334 -5.0155 17.0236 38.0138 6.5979 0.0994 -28.0499 -0.2431 0.519979 -29.2235 3.42644 -0.0679 -23.3996 -0.1402 -16.4111 -23.5598 -59.3542 -0.7932 -9.0691 2.5189 1.02952e-005 -2.6067e-006 -6.75054e-006 0.8272 -3.3923 0.5977 3.18055e-015 -3.18055e-015 -0 0.565 -2.3158 0.4082 -3.08973e-031 3.18055e-015 5.56597e-015 -0.916 -9.2044 0.2193 1.02952e-005 -2.6067e-006 -6.75054e-006 -0.0117 -4.1944 -0.0248 0.0129573 0.00232368 -7.71298e-005 -0.0071 -2.3249 -0.0142 6.36111e-015 -2.38542e-015 3.18055e-015 -0.6113 -8.7231 -2.0637 1.02952e-005 -2.6067e-006 -6.75054e-006 0.1927 -3.8059 -0.2383 0.0163302 0.00304645 -0.000869428 0.1091 -2.1688 -0.1362 3.31043e-032 2.38542e-015 -7.95139e-016 0.6151 -8.0947 -3.564 1.02952e-005 -2.6067e-006 -6.75054e-006 0.4882 -2.341 -0.6462 0.0145292 0.00366928 -0.00324445 0.3574 -1.7166 -0.4742 -3.18055e-015 -1.59028e-014 -5.56597e-015 1.4199 -1.8761 1.4221 1.02952e-005 -2.6067e-006 -6.75054e-006 1.1472 -3.4929 2.6336 3.18055e-015 -3.18055e-015 -0 0.8229 -2.3 1.6571 -3.08973e-031 3.18055e-015 5.56597e-015 -9.412 3.9771 -0.7758 -103.33 -37.9281 -108.137 -0.7531 -40.938 -7.10543e-015 -66.9653 81.2783 75.6958 0 -40.1986 0 -33.5052 30.7388 61.0597 7.10543e-015 -4.4182 9.239 7.84905e-009 -4.80136e-006 -6.19508e-007 9.4119 3.9773 -0.7758 103.355 -38.0645 108.03 0.7532 -40.9383 0 66.8585 81.3162 -75.6004 0 -40.1986 0 33.3249 30.8108 -60.9512 0 -4.4182 9.239 -3.08634e-007 1.1556e-007 8.99297e-007 
